<svg xmlns="http://www.w3.org/2000/svg" fill="currentColor" viewBox="0 0 394 129"><path d="M48.508.645C36.45 1.751 23.972 11.015 19.215 22.427c-1.21 2.9-1.794 5.111-2.733 10.37-.459 2.586-.834 4.84-.834 4.986 0 .23 11.12.27 58.21.27h58.21l.104-.479c.063-.25 1.523-8.387 3.234-18.089a9232.88 9232.88 0 0 0 3.255-18.318l.125-.668-44.711.042C69.476.56 48.967.603 48.508.645ZM154.157.1c0 .104-1.46 8.429-3.234 18.527-1.773 10.098-3.233 18.485-3.233 18.61 0 .209 11.788.271 58.209.271h58.21l.105-.48c.208-.876 1.335-7.552 1.544-9.18.542-3.88.146-8.407-1.044-11.933-1.231-3.672-3.087-6.552-6.071-9.39-3.317-3.191-6.76-4.986-11.642-6.091-1.44-.334-5.216-.355-47.194-.418-25.12-.041-45.65 0-45.65.084Zm112.959 1.088c.041.125 4.006 8.575 8.825 18.777l8.763 18.59h77.697l14.542-17.588c8.011-9.66 15.022-18.11 15.585-18.778L393.55 1h-43.793l-12.143 14.709c-6.676 8.095-12.267 14.709-12.393 14.709-.146 0-3.442-6.614-7.344-14.709L310.825 1h-21.907c-13.645 0-21.844.083-21.802.188Zm23.743 50.135c.333.73 1.857 3.985 3.4 7.261 1.544 3.276 2.754 6.071 2.671 6.197-.083.146-11.788 14.416-25.996 31.692-14.229 17.296-25.892 31.525-25.934 31.629-.042.084 9.681.167 21.594.167h21.678l12.184-14.709c7.094-8.575 12.289-14.709 12.477-14.667.146.041 1.314 2.211 2.566 4.861 1.272 2.629 4.423 9.243 7.01 14.646l4.715 9.869h21.865c12.039 0 21.887-.063 21.887-.146 0-.084-6.719-14.354-14.918-31.713-8.2-17.359-14.918-31.671-14.918-31.817 0-.146 2.587-3.443 5.738-7.323 3.15-3.902 5.737-7.115 5.737-7.157 0-.041-14.02-.083-31.17-.083h-31.191l.605 1.293Zm-277.589 0c-.69 8.283 1.502 15.022 6.613 20.259 3.756 3.86 8.7 6.259 14.334 6.948 1.126.125 10.932.208 27.394.208 21.03 0 25.641.042 25.725.271.041.146-.355 2.713-.897 5.696l-1.023 5.404-79.032.209-3.171 18.568C1.46 119.11.021 127.518 0 127.622c0 .083 20.488.125 45.546.083l45.524-.062 2.087-.459c4.485-1.023 8.324-2.65 11.996-5.049 8.221-5.404 13.729-12.79 15.94-21.386.167-.688 1.169-6.092 2.212-11.996 1.669-9.389 1.94-11.141 2.024-13.895.167-4.82-.543-8.43-2.421-12.143-3.296-6.51-8.929-10.787-16.503-12.498-1.439-.333-5.216-.354-47.277-.417l-45.713-.063-.146 1.586Zm125.573 36.405c-3.651 21.218-6.676 38.764-6.739 39.015l-.104.48h37.346l.104-.48c.063-.251 2.003-11.162 4.319-24.244 2.337-13.081 4.319-23.91 4.444-24.056.146-.188 5.55-.25 25.684-.25 15.877 0 26.184-.084 27.352-.209 7.407-.834 14.5-4.319 20.426-10.014 4.923-4.736 7.97-9.744 9.806-16.149.292-1.001.542-2.024.542-2.232 0-.397-1.294-.397-58.273-.397h-58.251l-6.656 38.536Z"/></svg>